<svg id="Layer_1" data-name="Layer 1" xmlns="http://www.w3.org/2000/svg" viewBox="0 0 101.4 42.5"><defs><style>.cls-1{fill:#fff;}</style></defs><title>logo_pibli_solo</title><path class="cls-1" d="M28.6,22.08a15.1,15.1,0,0,1-.8,4.8,12.8,12.8,0,0,1-2.4,3.9,10.69,10.69,0,0,1-3.9,2.6,13.63,13.63,0,0,1-5.1,1,10.64,10.64,0,0,1-3.7-.6,11.3,11.3,0,0,1-2.9-1.5l-1.1,7.5-5.2-.5.2-27.5,3.9.2,1.3.5a7.1,7.1,0,0,1,1.4-1c.5-.3,1.1-.6,1.7-.9s1.3-.4,2-.6a16.35,16.35,0,0,1,2.2-.2,11.91,11.91,0,0,1,5.1,1,11.6,11.6,0,0,1,3.9,2.6,11.35,11.35,0,0,1,2.5,3.9A12.8,12.8,0,0,1,28.6,22.08Zm-6.9,0a7.08,7.08,0,0,0-.5-2.6,5.78,5.78,0,0,0-1.3-2,5.33,5.33,0,0,0-2-1.3,6.87,6.87,0,0,0-2.4-.5,6,6,0,0,0-2.4.5,5,5,0,0,0-1.9,1.3,5.33,5.33,0,0,0-1.3,2,7,7,0,0,0,0,5.2,5.78,5.78,0,0,0,1.3,2,5.33,5.33,0,0,0,2,1.3,6.87,6.87,0,0,0,2.4.5A6,6,0,0,0,18,28a5.33,5.33,0,0,0,2-1.3,6.9,6.9,0,0,0,1.3-2A10.13,10.13,0,0,0,21.7,22.08Z"/><path class="cls-1" d="M68.2,22.08a12.8,12.8,0,0,1-.9,4.8,11.35,11.35,0,0,1-2.5,3.9,13.58,13.58,0,0,1-3.9,2.7,13.63,13.63,0,0,1-5.1,1,15,15,0,0,1-2.2-.2,6,6,0,0,1-1.9-.6,8.86,8.86,0,0,1-1.7-.8,7.1,7.1,0,0,1-1.4-1l-1.5-.7-3.6.6.4-27,4.2-.9,1.3,7.9a11.3,11.3,0,0,1,2.9-1.5,10.64,10.64,0,0,1,3.7-.6,12.15,12.15,0,0,1,9,3.7,9.83,9.83,0,0,1,2.4,3.9A15.1,15.1,0,0,1,68.2,22.08Zm-6.9,0a7.08,7.08,0,0,0-.5-2.6,5.78,5.78,0,0,0-1.3-2,5.33,5.33,0,0,0-2-1.3,6.44,6.44,0,0,0-2.4-.5,6.87,6.87,0,0,0-2.4.5,6.25,6.25,0,0,0-2,1.3,5.33,5.33,0,0,0-1.3,2,7,7,0,0,0,0,5.2,5.78,5.78,0,0,0,1.3,2A5.86,5.86,0,0,0,52.6,28a6,6,0,0,0,2.4.5,6.87,6.87,0,0,0,2.4-.5,6.25,6.25,0,0,0,2-1.3,5.33,5.33,0,0,0,1.3-2A4.75,4.75,0,0,0,61.3,22.08Z"/><path class="cls-1" d="M91.8,30.68a3.19,3.19,0,0,1,.3-1.4,4.18,4.18,0,0,1,.8-1.2,3.6,3.6,0,0,1,1.2-.8,4,4,0,0,1,1.5-.3,4.15,4.15,0,0,1,1.6.3,8.34,8.34,0,0,1,1.2.8,3.6,3.6,0,0,1,.8,1.2,3.42,3.42,0,0,1,0,2.8,2.84,2.84,0,0,1-.8,1.1,3.6,3.6,0,0,1-1.2.8,4.15,4.15,0,0,1-1.6.3,3.34,3.34,0,0,1-1.5-.3,3.6,3.6,0,0,1-1.2-.8,4.44,4.44,0,0,1-.8-1.1A3.19,3.19,0,0,1,91.8,30.68Z"/><path class="cls-1" d="M35.9,33.58H33.6a2.26,2.26,0,0,1-2.3-2.3V12.78a2.26,2.26,0,0,1,2.3-2.3h2.3a2.26,2.26,0,0,1,2.3,2.3v18.5A2.33,2.33,0,0,1,35.9,33.58Z"/><path class="cls-1" d="M75.1,33.58H73.4A2.58,2.58,0,0,1,70.8,31V4.78a2.58,2.58,0,0,1,2.6-2.6h1.8a2.58,2.58,0,0,1,2.6,2.6v26.3A2.65,2.65,0,0,1,75.1,33.58Z"/><path class="cls-1" d="M46.7,34.38H45a2.65,2.65,0,0,1-2.6-2.6v-27A2.65,2.65,0,0,1,45,2.18h1.7a2.65,2.65,0,0,1,2.6,2.6v11.5L47.8,22l1.5,5.7v4.1A2.52,2.52,0,0,1,46.7,34.38Z"/><path class="cls-1" d="M86.1,33.58H83.8a2.26,2.26,0,0,1-2.3-2.3V12.78a2.26,2.26,0,0,1,2.3-2.3h2.3a2.26,2.26,0,0,1,2.3,2.3v18.5A2.26,2.26,0,0,1,86.1,33.58Z"/><path class="cls-1" d="M7.3,41.48H5.2a2.43,2.43,0,0,1-2.4-2.4V12.88a2.43,2.43,0,0,1,2.4-2.4H7.3a2.43,2.43,0,0,1,2.4,2.4v2.9l-1.2,6,1.2,6.1v11.2A2.31,2.31,0,0,1,7.3,41.48Z"/></svg>